<svg xmlns="http://www.w3.org/2000/svg" version="1.1" xmlns:xlink="http://www.w3.org/1999/xlink" viewBox="0 0 700 700" style="overflow: hidden; display: block;" width="700" height="700"><defs></defs><g id="two-0" transform="matrix(1 0 0 1 0 0)" opacity="1"><path transform="matrix(1 0 0 1 350 350)" id="two-10" d="M 268.755148 78.913631 C 284.346158 105.898612 289.320026 149.10564 269.735526 173.348497 C 248.239871 199.957096 194.133557 171.807987 168.174812 194.08408 C 142.468101 216.143893 165.843727 283.818367 132.610128 290.375676 C 81.08882 300.541326 77.089981 167.340908 24.906235 173.22667 C -19.125987 178.193028 2.11525 296.630599 -41.67207 289.835606 C -86.762329 282.838421 -31.204525 177.623447 -70.615417 154.626194 C -96.590173 139.469266 -136.70503 203.506037 -157.582947 181.860415 C -182.914526 155.597364 -98.847722 106.785468 -120.751898 77.602532 C -156.032015 30.598827 -283.304157 144.421607 -298.561426 87.665544 C -315.187381 25.818057 -132.56193 63.643715 -125.419698 0 C -122.13163 -29.299645 -198.371808 -27.835434 -194.200617 -57.022446 C -190.993993 -79.460106 -141.138612 -63.940968 -131.162851 -84.293246 C -116.877957 -113.4369 -181.950349 -160.624612 -155.592498 -179.563314 C -122.176063 -203.573764 -87.746107 -93.157575 -51.001287 -111.677241 C -0.732679 -137.012998 -95.275204 -268.803893 -40.536704 -281.938968 C 0.661245 -291.824846 -17.582805 -174.910447 24.632453 -171.32248 C 83.979094 -166.27848 88.292745 -336.534006 141.177783 -309.136226 C 204.373416 -276.396908 33.957402 -147.858267 86.981404 -100.381893 C 131.766091 -60.282797 220.2072 -212.676908 257.188306 -165.284889 C 285.157664 -129.441602 205.788159 -88.547894 178.28163 -52.34821 C 164.73334 -34.518123 131.227826 -22.055885 135.1016 -0.000001 C 143.961944 50.447637 243.131406 34.563956 268.755148 78.913631 Z " fill="hsl(265, 55%, 20%)" stroke="undefined" stroke-width="1" stroke-opacity="1" fill-opacity="1" visibility="visible" stroke-linecap="butt" stroke-linejoin="miter" stroke-miterlimit="4"></path></g></svg>